# xmcd CD database file
#
# Track frame offsets:
#	150
#	26649
#	45204
#	65776
#	87828
#	109070
#	125788
#	143093
#	163554
#	182319
#	202340
#	222898
#	241196
#	262583
#	283032
#
# Disc length: 4003 seconds
#
# Revision: 2
# Processed by: cddbd v1.5.2PL0 Copyright (c) Steve Scherf et al.
# Submitted via: CDex 2.06
#
DISCID=d20fa10f
DTITLE=ABBA - The Album- Deluxe Edition
DYEAR=2007
DGENRE=Pop
TTITLE0=Eagle
TTITLE1=Take A Chance On Me
TTITLE2=One Man, One Woman
TTITLE3=The Name Of The Game
TTITLE4=Move On
TTITLE5=Hole In Your Soul
TTITLE6=Thank You For The Music
TTITLE7=I Wonder (Departure)
TTITLE8=I'm A Marionette
TTITLE9=Eagle (Single Edit)
TTITLE10=Take A Chance On Me (Live Version Alternate Mix)
TTITLE11=Thank You For The Music (Doris Day Version)
TTITLE12=Al Andar (Spanish Version Of 'Move On')
TTITLE13=I Wonder (Departure) (Live Version)
TTITLE14=Gracias Por La Musica (Spanish Version Of 'Thank You For The Music')
EXTD=YEAR: 2007
EXTT0=
EXTT1=
EXTT2=
EXTT3=
EXTT4=
EXTT5=
EXTT6=
EXTT7=
EXTT8=
EXTT9=
EXTT10=
EXTT11=
EXTT12=
EXTT13=
EXTT14=
PLAYORDER=
